name Walk3.mot
datacolumns 19
datarows 12
range 1.65500000 1.66600000
endheader

                time	   L_ground_force_vx	   L_ground_force_vy	   L_ground_force_vz	   L_ground_force_px	   L_ground_force_py	   L_ground_force_pz	   R_ground_force_vx	   R_ground_force_vy	   R_ground_force_vz	   R_ground_force_px	   R_ground_force_py	   R_ground_force_pz	   L_ground_torque_x	   L_ground_torque_y	   L_ground_torque_z	   R_ground_torque_x	   R_ground_torque_y	   R_ground_torque_z	
          1.65500000	         -0.00000002	         -0.00000005	          0.00000000	          0.00000000	          0.00000000	          0.00000000	         -1.34370811	         -5.75913763	         -0.18551283	          0.02998790	          0.00000000	          0.00786856	          0.00000000	          0.00000000	          0.00000000	          0.00000000	          0.25177474	          0.00000000	
          1.65600000	         -0.00000002	         -0.00000005	          0.00000000	          0.00000000	          0.00000000	          0.00000000	         -1.40221496	         -5.97970695	         -0.20703410	          0.02622284	          0.00000000	          0.00694463	          0.00000000	          0.00000000	          0.00000000	          0.00000000	          0.26897571	          0.00000000	
          1.65700000	         -0.00000002	         -0.00000005	          0.00000000	          0.00000000	          0.00000000	          0.00000000	         -1.45044867	         -6.15892662	         -0.22594321	          0.02267881	          0.00000000	          0.00607302	          0.00000000	          0.00000000	          0.00000000	          0.00000000	          0.28369778	          0.00000000	
          1.65800000	         -0.00000002	         -0.00000004	          0.00000000	          0.00000000	          0.00000000	          0.00000000	         -1.48910044	         -6.29963514	         -0.24239079	          0.01935041	          0.00000000	          0.00525256	          0.00000000	          0.00000000	          0.00000000	          0.00000000	          0.29609610	          0.00000000	
          1.65900000	         -0.00000002	         -0.00000004	          0.00000000	          0.00000000	          0.00000000	          0.00000000	         -1.51883891	         -6.40457518	         -0.25652400	          0.01623188	          0.00000000	          0.00448202	          0.00000000	          0.00000000	          0.00000000	          0.00000000	          0.30632138	          0.00000000	
          1.66000000	         -0.00000002	         -0.00000004	          0.00000000	          0.00000000	          0.00000000	          0.00000000	         -1.54030955	         -6.47639139	         -0.26848620	          0.01331717	          0.00000000	          0.00376005	          0.00000000	          0.00000000	          0.00000000	          0.00000000	          0.31451974	          0.00000000	
          1.66100000	         -0.00000001	         -0.00000004	          0.00000000	          0.00000000	          0.00000000	          0.00000000	         -1.55413420	         -6.51762870	         -0.27841677	          0.01059996	          0.00000000	          0.00308526	          0.00000000	          0.00000000	          0.00000000	          0.00000000	          0.32083255	          0.00000000	
          1.66200000	         -0.00000001	         -0.00000004	          0.00000000	          0.00000000	          0.00000000	          0.00000000	         -1.56091071	         -6.53073124	         -0.28645093	          0.00807372	          0.00000000	          0.00245619	          0.00000000	          0.00000000	          0.00000000	          0.00000000	          0.32539627	          0.00000000	
          1.66300000	         -0.00000001	         -0.00000004	          0.00000000	          0.00000000	          0.00000000	          0.00000000	         -1.56121273	         -6.51804164	         -0.29271957	          0.00573176	          0.00000000	          0.00187132	          0.00000000	          0.00000000	          0.00000000	          0.00000000	          0.32834237	          0.00000000	
          1.66400000	         -0.00000001	         -0.00000004	          0.00000000	          0.00000000	          0.00000000	          0.00000000	         -1.55558961	         -6.48180079	         -0.29734910	          0.00356727	          0.00000000	          0.00132911	          0.00000000	          0.00000000	          0.00000000	          0.00000000	          0.32979724	          0.00000000	
          1.66500000	         -0.00000001	         -0.00000004	          0.00000000	          0.00000000	          0.00000000	          0.00000000	         -1.54456639	         -6.42414808	         -0.30046139	          0.00157333	          0.00000000	          0.00082797	          0.00000000	          0.00000000	          0.00000000	          0.00000000	          0.32988219	          0.00000000	
          1.66600000	         -0.00000001	         -0.00000003	          0.00000000	          0.00000000	          0.00000000	          0.00000000	         -1.52864384	         -6.34712187	         -0.30217369	         -0.00025702	          0.00000000	          0.00036632	          0.00000000	          0.00000000	          0.00000000	          0.00000000	          0.32871337	          0.00000000	
